<svg width="156" height="51" viewBox="0 0 156 51" fill="none" xmlns="http://www.w3.org/2000/svg">
<path d="M24.2717 50.0838C20.8583 50.0838 17.701 49.4865 14.7997 48.2918C11.8983 47.0545 9.35967 45.3265 7.18367 43.1078C5.05034 40.8891 3.38634 38.2865 2.19167 35.2998C1.03967 32.2705 0.463672 28.9851 0.463672 25.4438C0.463672 21.9025 1.03967 18.6385 2.19167 15.6518C3.38634 12.6651 5.05034 10.0625 7.18367 7.8438C9.35967 5.62513 11.8983 3.91846 14.7997 2.72379C17.701 1.48646 20.8583 0.867794 24.2717 0.867794C27.6423 0.867794 30.693 1.44379 33.4237 2.59579C36.1543 3.7478 38.4583 5.28379 40.3357 7.20379C42.213 9.08113 43.557 11.1505 44.3677 13.4118L36.5597 17.0598C35.6637 14.6705 34.149 12.7078 32.0157 11.1718C29.8823 9.59313 27.301 8.80379 24.2717 8.80379C21.285 8.80379 18.6397 9.50779 16.3357 10.9158C14.0743 12.2811 12.3037 14.2225 11.0237 16.7398C9.78634 19.2571 9.16767 22.1585 9.16767 25.4438C9.16767 28.7718 9.78634 31.6945 11.0237 34.2118C12.3037 36.7291 14.0743 38.6918 16.3357 40.0998C18.6397 41.4651 21.285 42.1478 24.2717 42.1478C27.301 42.1478 29.8823 41.3798 32.0157 39.8438C34.149 38.3078 35.6637 36.3238 36.5597 33.8918L44.3677 37.5398C43.557 39.8011 42.213 41.8918 40.3357 43.8118C38.4583 45.6891 36.1543 47.2038 33.4237 48.3558C30.693 49.5078 27.6423 50.0838 24.2717 50.0838ZM50.7302 49.3158V0.867794H59.1142V18.0198C60.0955 16.6118 61.3968 15.5451 63.0182 14.8198C64.6395 14.0945 66.4528 13.7318 68.4582 13.7318C71.0182 13.7318 73.2795 14.3078 75.2422 15.4598C77.2048 16.5691 78.7408 18.1051 79.8502 20.0678C81.0022 22.0305 81.5782 24.3131 81.5782 26.9158V49.3158H73.1942V28.8998C73.1942 26.5958 72.5328 24.7825 71.2102 23.4598C69.8875 22.0945 68.2022 21.4118 66.1542 21.4118C64.1062 21.4118 62.4208 22.0945 61.0982 23.4598C59.7755 24.8251 59.1142 26.6385 59.1142 28.8998V49.3158H50.7302ZM88.6677 49.3158V14.4998H96.5397V19.3638C97.4357 17.4438 98.6943 16.0998 100.316 15.3318C101.937 14.5211 103.814 14.1158 105.948 14.1158H107.996V21.5398H104.988C102.641 21.5398 100.721 22.2865 99.2277 23.7798C97.777 25.2305 97.0517 27.2785 97.0517 29.9238V49.3158H88.6677ZM112.605 10.5958V1.63579H120.989V10.5958H112.605ZM112.605 49.3158V14.4998H120.989V49.3158H112.605ZM141.978 50.0838C138.266 50.0838 135.024 49.2091 132.25 47.4598C129.52 45.6678 127.642 43.2571 126.618 40.2278L132.89 37.2198C133.786 39.1825 135.024 40.7185 136.602 41.8278C138.224 42.9371 140.016 43.4918 141.978 43.4918C143.472 43.4918 144.666 43.1718 145.562 42.5318C146.501 41.8491 146.97 40.9318 146.97 39.7798C146.97 38.7558 146.565 37.9665 145.754 37.4118C144.986 36.8571 144.048 36.4305 142.938 36.1318L137.242 34.5318C134.298 33.7211 132.058 32.4411 130.522 30.6918C129.029 28.8998 128.282 26.8091 128.282 24.4198C128.282 22.2865 128.837 20.4305 129.946 18.8518C131.056 17.2305 132.57 15.9718 134.49 15.0758C136.41 14.1798 138.629 13.7318 141.146 13.7318C144.432 13.7318 147.333 14.5425 149.85 16.1638C152.368 17.7425 154.16 19.9398 155.226 22.7558L148.826 25.7638C148.229 24.1851 147.226 22.9265 145.818 21.9878C144.41 21.0491 142.832 20.5798 141.082 20.5798C139.674 20.5798 138.565 20.8998 137.754 21.5398C136.944 22.1798 136.538 23.0118 136.538 24.0358C136.538 25.0171 136.901 25.7851 137.626 26.3398C138.394 26.8945 139.397 27.3425 140.634 27.6838L146.202 29.3478C149.061 30.2011 151.258 31.5025 152.794 33.2518C154.373 34.9585 155.162 37.0278 155.162 39.4598C155.162 41.5931 154.608 43.4491 153.498 45.0278C152.389 46.6065 150.832 47.8438 148.826 48.7398C146.864 49.6358 144.581 50.0838 141.978 50.0838Z" fill="black"/>
</svg>
