<svg width="19" height="19" viewBox="0 0 19 19" fill="none" xmlns="http://www.w3.org/2000/svg">
<path d="M7.34542 18.0274L6.98721 15.1474C6.79318 15.0724 6.61049 14.9824 6.43915 14.8774C6.26781 14.7724 6.09975 14.6599 5.93497 14.5399L3.27079 15.6649L0.808105 11.3899L3.11408 9.6349C3.09915 9.5299 3.09169 9.4288 3.09169 9.3316V8.7241C3.09169 8.6263 3.09915 8.5249 3.11408 8.4199L0.808105 6.6649L3.27079 2.3899L5.93497 3.5149C6.09915 3.3949 6.27079 3.2824 6.4499 3.1774C6.629 3.0724 6.80811 2.9824 6.98721 2.9074L7.34542 0.0274048H12.2708L12.629 2.9074C12.823 2.9824 13.006 3.0724 13.178 3.1774C13.3499 3.2824 13.5177 3.3949 13.6812 3.5149L16.3454 2.3899L18.8081 6.6649L16.5021 8.4199C16.5171 8.5249 16.5245 8.6263 16.5245 8.7241V9.3307C16.5245 9.4285 16.5096 9.5299 16.4797 9.6349L18.7857 11.3899L16.323 15.6649L13.6812 14.5399C13.5171 14.6599 13.3454 14.7724 13.1663 14.8774C12.9872 14.9824 12.8081 15.0724 12.629 15.1474L12.2708 18.0274H7.34542ZM9.85288 12.1774C10.7186 12.1774 11.4574 11.8699 12.0693 11.2549C12.6812 10.6399 12.9872 9.8974 12.9872 9.0274C12.9872 8.1574 12.6812 7.4149 12.0693 6.7999C11.4574 6.1849 10.7186 5.8774 9.85288 5.8774C8.97229 5.8774 8.2296 6.1849 7.62482 6.7999C7.02005 7.4149 6.71796 8.1574 6.71855 9.0274C6.71915 9.8974 7.02154 10.6399 7.62572 11.2549C8.2299 11.8699 8.97229 12.1774 9.85288 12.1774Z" fill="black"/>
</svg>
